<?xml version="1.0" encoding="UTF-8"?>
<svg width="16px" height="19px" viewBox="0 0 16 19" version="1.1" xmlns="http://www.w3.org/2000/svg" xmlns:xlink="http://www.w3.org/1999/xlink">
    <!-- Generator: Sketch 55.2 (78181) - https://sketchapp.com -->
    <title>logo</title>
    <desc>Created with Sketch.</desc>
    <g id="Page-1" stroke="none" stroke-width="1" fill="none" fill-rule="evenodd">
        <g id="logo" fill="#147DB3" fill-rule="nonzero">
            <path d="M0.6961471,8.8662896 C0.2395162,9.7938537 0,10.8056894 0,11.8456926 C0,15.7968734 3.4387171,19 7.6806248,19 C11.9225326,19 15.3612496,15.7968734 15.3612496,11.8456926 C15.3612496,10.2426862 14.9063141,8.9453663 14.0666752,7.5832842 C13.9141017,7.3360107 13.4402761,6.6165858 13.476482,6.6728053 C13.1614056,6.1827605 13.2349073,5.5890502 13.4284093,5.1545323 C13.5982987,4.7732324 14.4554956,3.0550165 16,0 L11.8164577,0 C10.8127417,2.0469903 10.2175838,3.1818856 9.9394398,3.806303 C9.6460385,4.4650063 9.5440806,4.7250937 9.4543528,5.1390632 C9.2935451,5.8797293 9.3692265,6.5901499 9.6765532,7.4227065 C9.8036978,7.76695 9.9729818,8.0726364 10.2374426,8.4831427 C10.2263023,8.4658266 10.6709452,9.140807 10.7909455,9.3354396 C11.3283434,10.207246 11.5839646,10.9359062 11.5839646,11.8456926 C11.5839646,13.853664 9.8363921,15.48149 7.6806248,15.48149 C5.5248575,15.48149 3.7774061,13.853664 3.7774061,11.8456926 C3.7774061,11.3144355 3.8986173,10.8024571 4.1297783,10.3327298 C4.2836839,10.020117 5.9153731,6.5758353 9.0248462,0 L0.3776801,0 L0.3776801,3.51851 L3.2352857,3.51851 C1.7237178,6.7154028 0.8728175,8.5072697 0.6961471,8.8662896"></path>
        </g>
    </g>
</svg>