<?xml version="1.0" encoding="UTF-8"?>
<svg width="150px" height="150px" viewBox="0 0 150 150" version="1.1" xmlns="http://www.w3.org/2000/svg" xmlns:xlink="http://www.w3.org/1999/xlink">
    <!-- Generator: Sketch 50.2 (55047) - http://www.bohemiancoding.com/sketch -->
    <title>Artboard 2 Copy</title>
    <desc>Created with Sketch.</desc>
    <defs></defs>
    <g id="Artboard-2-Copy" stroke="none" stroke-width="1" fill="none" fill-rule="evenodd">
        <g id="Group" transform="translate(12.000000, 38.000000)" fill="#F5A623">
            <g id="Group-3-Copy-8">
                <g id="chemaxon_GOLD_M-Copy-2" transform="translate(38.294953, 37.319314) rotate(-3.000000) translate(-38.294953, -37.319314) translate(2.794953, 1.819314)" fill-rule="nonzero">
                    <path d="M53.116165,21.5715646 L44.9835563,29.7537075 L29.2792085,44.9894218 L25.3531215,48.9394218 C28.1574694,51.1965646 31.8031215,52.6072789 35.7292085,52.6072789 C37.692252,52.6072789 39.3748607,52.3251361 41.0574694,51.7608504 L45.2639911,55.9929932 C42.4596433,57.4037075 39.0944259,58.2501361 35.7292085,58.2501361 C28.7183389,58.2501361 22.2683389,54.8644218 18.0618172,49.7858504 L26.1944259,41.6037075 L41.6183389,26.3679932 L45.5444259,22.4179932 C42.7400781,20.1608504 39.0944259,18.7501361 35.1683389,18.7501361 C33.2052954,18.7501361 31.5226867,19.0322789 29.8400781,19.5965646 L25.6335563,15.3644218 C28.4379041,13.9537075 31.8031215,13.1072789 35.1683389,13.1072789 C42.4596433,13.1072789 48.9096433,16.4929932 53.116165,21.5715646 Z M38.5044029,2.06561465 C34.4322103,1.66724365 30.6222055,2.06415865 26.5926701,2.98754545 C26.3560464,3.04176887 26.1363399,3.14699781 25.9139911,3.23227892 C20.9763134,5.1261085 35.4828188,7.12505986 39.0944259,7.74656464 M62.2006901,24.6510383 C63.1497256,27.4095007 63.3881862,31.5420964 63.4785041,34.7099386 C63.4876592,35.0310463 63.492252,35.3539875 63.492252,35.6787075 C63.492252,42.7322789 60.9683389,49.2215646 56.7618172,54.0179932 L52.8357302,50.0679932 C55.9205128,46.1179932 57.8835563,41.0394218 57.8835563,35.6787075 C57.8835563,32.2929932 57.042252,28.9072789 55.6400781,26.0858504 L51.4335563,30.3179932 C51.9944259,32.0108504 52.2748607,33.7037075 52.2748607,35.6787075 C52.2748607,41.3215646 49.4705128,46.1179932 45.5444259,49.2215646 L53.6770346,57.4037075 C48.9096433,61.6358504 42.4596433,63.8929932 35.7292085,63.8929932 C20.0248607,63.8929932 7.40529544,51.1965646 7.40529544,35.6787075 C7.40529544,28.6251361 9.92920849,22.1358504 14.1357302,17.3394218 L18.0618172,21.2894218 C14.9770346,25.2394218 13.0139911,30.3179932 13.0139911,35.6787075 C13.0139911,39.0644218 13.8552954,42.4501361 15.2574694,45.2715646 L19.4639911,41.0394218 C18.9031215,39.3465646 18.6226867,37.6537075 18.6226867,35.6787075 C18.6226867,30.0358504 21.4270346,25.2394218 25.3531215,22.1358504 L17.2205128,13.9537075 C21.1465998,10.5679932 25.4253078,8.85197588 31.5226867,7.74656464 C33.2951722,7.42522569 35.8190852,7.42522569 39.0944259,7.74656464 C38.6347573,7.58912862 38.2900059,7.47105161 38.0601716,7.3923336 C35.3610204,6.467877 31.3122936,5.08119211 25.9139911,3.23227892 C12.1726867,7.18227892 1.79659979,20.1608504 1.79659979,35.6787075 C1.79659979,54.3001361 16.9400781,69.5358504 35.4487737,69.5358504 C53.9574694,69.5358504 69.1009476,54.3001361 69.1009476,35.6787075 C69.1009476,35.3717713 69.0969337,35.0658468 69.088956,34.7609835 C68.9889219,30.9382059 69.3524689,30.5745118 68.1051206,27.1830426 L62.2006901,24.6510383 Z" id="Shape" transform="translate(35.448774, 35.723643) rotate(-2.000000) translate(-35.448774, -35.723643) "></path>
                </g>
                <path d="M38.8461794,3.69671728 C54.0173573,4.24970711 68.4209827,8.47048382 81.6097727,15.0657321 C99.0240659,23.7740053 114.320392,36.6219776 126.469111,50.632455 C125.228516,52.0583235 123.261958,52.8346296 120.569437,52.9613735 C104.758922,43.6907029 86.6166992,36.298459 66.1427692,30.7846418 C66.1427692,30.7846418 66.4442457,29.4143386 67.0471988,26.6737322 C68.8306115,28.1496553 69.2555542,27.8015689 68.3220268,25.629473 C91.3176379,31.4755537 101.039646,36.786377 116.529038,45.9380748 C104.506493,34.7157324 69.3976202,9.35205938 37.3064754,9.35205938 C34.2485662,7.68747894 34.9734801,3.55555729 38.8461794,3.69671728 Z" id="Path-2-Copy"></path>
            </g>
        </g>
    </g>
</svg>